<svg width="119" height="98" viewBox="0 0 119 98" fill="none" xmlns="http://www.w3.org/2000/svg">
<g filter="url(#filter0_d_35_192)">
<path d="M67.12 0.271996C80.944 0.271996 92.208 3.856 100.912 11.024C109.701 18.1067 114.096 29.4987 114.096 45.2C114.096 55.3547 111.92 63.8027 107.568 70.544C103.216 77.2 97.4987 82.1067 90.416 85.264C83.3333 88.4213 75.6107 90 67.248 90H4.144V0.271996H67.12ZM60.976 72.848C71.8133 72.848 79.9627 70.7147 85.424 66.448C90.8853 62.096 93.616 55.0133 93.616 45.2C93.616 35.3013 90.928 28.2187 85.552 23.952C80.2613 19.6853 72.0693 17.552 60.976 17.552H24.88V72.848H60.976Z" fill="white"/>
</g>
<defs>
<filter id="filter0_d_35_192" x="0.144043" y="0.271973" width="117.952" height="97.728" filterUnits="userSpaceOnUse" color-interpolation-filters="sRGB">
<feFlood flood-opacity="0" result="BackgroundImageFix"/>
<feColorMatrix in="SourceAlpha" type="matrix" values="0 0 0 0 0 0 0 0 0 0 0 0 0 0 0 0 0 0 127 0" result="hardAlpha"/>
<feOffset dy="4"/>
<feGaussianBlur stdDeviation="2"/>
<feComposite in2="hardAlpha" operator="out"/>
<feColorMatrix type="matrix" values="0 0 0 0 0 0 0 0 0 0 0 0 0 0 0 0 0 0 0.25 0"/>
<feBlend mode="normal" in2="BackgroundImageFix" result="effect1_dropShadow_35_192"/>
<feBlend mode="normal" in="SourceGraphic" in2="effect1_dropShadow_35_192" result="shape"/>
</filter>
</defs>
</svg>
