<svg width="702" height="93" viewBox="0 0 702 93" fill="none" xmlns="http://www.w3.org/2000/svg">
<path d="M33.84 1.39999V91H0.56V1.39999H33.84ZM133.655 27H72.215V35.32H133.655V57.08H72.215V65.4H133.655V91H38.935V1.39999H133.655V27ZM203.995 1.39999C225.627 1.39999 245.979 15.736 245.979 46.2C245.979 76.664 225.627 91 203.995 91H137.435V1.39999H203.995ZM193.755 62.84C200.923 62.84 212.699 62.84 212.699 46.2C212.699 29.56 200.923 29.56 193.755 29.56H170.715V62.84H193.755ZM316.37 1.39999C338.002 1.39999 358.354 15.736 358.354 46.2C358.354 76.664 338.002 91 316.37 91H249.81V1.39999H316.37ZM306.13 62.84C313.298 62.84 325.074 62.84 325.074 46.2C325.074 29.56 313.298 29.56 306.13 29.56H283.09V62.84H306.13ZM360.905 59.384H394.185C394.185 63.736 398.281 66.68 419.401 66.68C439.113 66.68 442.057 65.4 442.057 62.072C442.057 58.232 439.113 57.72 418.121 57.08C377.673 55.8 362.185 49.144 362.185 28.28C362.185 8.56799 381.513 0.119995 416.841 0.119995C451.785 0.119995 471.497 8.56799 471.497 31.48H438.217C438.217 26.744 430.537 25.72 414.281 25.72C398.665 25.72 395.465 26.488 395.465 29.944C395.465 33.4 398.665 33.272 418.121 34.04C453.449 35.448 475.337 37.88 475.337 61.304C475.337 86.008 454.857 92.28 418.121 92.28C381.385 92.28 360.905 86.008 360.905 59.384ZM555.945 1.39999H592.553L555.433 91H506.025L468.905 1.39999H505.513L530.729 67.96L555.945 1.39999ZM587.53 59.384H620.81C620.81 63.736 624.906 66.68 646.026 66.68C665.738 66.68 668.682 65.4 668.682 62.072C668.682 58.232 665.738 57.72 644.746 57.08C604.298 55.8 588.81 49.144 588.81 28.28C588.81 8.56799 608.138 0.119995 643.466 0.119995C678.41 0.119995 698.122 8.56799 698.122 31.48H664.842C664.842 26.744 657.162 25.72 640.906 25.72C625.29 25.72 622.09 26.488 622.09 29.944C622.09 33.4 625.29 33.272 644.746 34.04C680.074 35.448 701.962 37.88 701.962 61.304C701.962 86.008 681.482 92.28 644.746 92.28C608.01 92.28 587.53 86.008 587.53 59.384Z" fill="black"/>
</svg>
