<svg width="747" height="90" viewBox="0 0 747 90" fill="none" xmlns="http://www.w3.org/2000/svg">
<path id="IEDDSVS" d="M26.9335 0.271996V90H6.9655V0.271996H26.9335ZM136.338 0.271996V17.68H60.4335V36.624H131.858V53.648H60.4335V72.592H136.338V90H40.4655V0.271996H136.338ZM211.183 0.271996C225.007 0.271996 236.271 3.856 244.975 11.024C253.764 18.1067 258.159 29.4987 258.159 45.2C258.159 55.3547 255.983 63.8027 251.631 70.544C247.279 77.2 241.561 82.1067 234.479 85.264C227.396 88.4213 219.673 90 211.311 90H148.207V0.271996H211.183ZM205.039 72.848C215.876 72.848 224.025 70.7147 229.487 66.448C234.948 62.096 237.679 55.0133 237.679 45.2C237.679 35.3013 234.991 28.2187 229.615 23.952C224.324 19.6853 216.132 17.552 205.039 17.552H168.943V72.848H205.039ZM332.183 0.271996C346.007 0.271996 357.271 3.856 365.975 11.024C374.764 18.1067 379.159 29.4987 379.159 45.2C379.159 55.3547 376.983 63.8027 372.631 70.544C368.279 77.2 362.561 82.1067 355.479 85.264C348.396 88.4213 340.673 90 332.311 90H269.207V0.271996H332.183ZM326.039 72.848C336.876 72.848 345.025 70.7147 350.487 66.448C355.948 62.096 358.679 55.0133 358.679 45.2C358.679 35.3013 355.991 28.2187 350.615 23.952C345.324 19.6853 337.132 17.552 326.039 17.552H289.943V72.848H326.039ZM449.202 91.28C436.061 91.28 425.224 90.384 416.691 88.592C408.243 86.7147 401.715 83.3867 397.107 78.608C392.584 73.8293 390.323 67.1733 390.323 58.64H412.467C412.467 62.3093 413.576 65.2107 415.795 67.344C418.013 69.4773 421.853 71.056 427.315 72.08C432.861 73.104 440.584 73.616 450.483 73.616C458.675 73.616 465.16 73.2747 469.939 72.592C474.717 71.9093 478.173 70.8427 480.307 69.392C482.44 67.9413 483.507 65.9787 483.507 63.504C483.507 60.7733 482.568 58.768 480.691 57.488C478.899 56.208 475.613 55.2693 470.835 54.672C466.056 53.9893 458.291 53.392 447.539 52.88C434.141 52.2827 423.56 51.0453 415.795 49.168C408.029 47.2907 402.312 44.432 398.643 40.592C395.059 36.752 393.267 31.504 393.267 24.848C393.267 15.4613 397.747 8.848 406.707 5.008C415.667 1.08266 428.979 -0.880005 446.643 -0.880005C464.307 -0.880005 477.747 1.59466 486.963 6.544C496.264 11.408 500.915 19.2587 500.915 30.096H478.899C478.899 26.512 477.704 23.7813 475.315 21.904C473.011 19.9413 469.384 18.576 464.435 17.808C459.485 17.04 452.701 16.656 444.083 16.656C436.317 16.656 430.301 16.9547 426.035 17.552C421.853 18.1493 418.867 19.1307 417.075 20.496C415.368 21.776 414.515 23.6107 414.515 26C414.515 28.4747 415.411 30.352 417.203 31.632C418.995 32.8267 422.152 33.7653 426.675 34.448C431.197 35.1307 438.152 35.728 447.539 36.24C461.789 37.008 472.669 38.032 480.179 39.312C487.773 40.592 493.747 43.024 498.099 46.608C502.536 50.1067 504.755 55.4827 504.755 62.736C504.755 70.3307 502.493 76.2187 497.971 80.4C493.448 84.5813 487.176 87.44 479.155 88.976C471.133 90.512 461.149 91.28 449.202 91.28ZM577.331 90H551.475L501.811 0.271996H524.979L564.403 72.72L603.827 0.271996H626.867L577.331 90ZM685.577 91.28C672.436 91.28 661.599 90.384 653.066 88.592C644.618 86.7147 638.09 83.3867 633.482 78.608C628.959 73.8293 626.698 67.1733 626.698 58.64H648.842C648.842 62.3093 649.951 65.2107 652.17 67.344C654.388 69.4773 658.228 71.056 663.69 72.08C669.236 73.104 676.959 73.616 686.858 73.616C695.05 73.616 701.535 73.2747 706.314 72.592C711.092 71.9093 714.548 70.8427 716.682 69.392C718.815 67.9413 719.882 65.9787 719.882 63.504C719.882 60.7733 718.943 58.768 717.066 57.488C715.274 56.208 711.988 55.2693 707.21 54.672C702.431 53.9893 694.666 53.392 683.914 52.88C670.516 52.2827 659.935 51.0453 652.17 49.168C644.404 47.2907 638.687 44.432 635.018 40.592C631.434 36.752 629.642 31.504 629.642 24.848C629.642 15.4613 634.122 8.848 643.082 5.008C652.042 1.08266 665.354 -0.880005 683.018 -0.880005C700.682 -0.880005 714.122 1.59466 723.338 6.544C732.639 11.408 737.29 19.2587 737.29 30.096H715.274C715.274 26.512 714.079 23.7813 711.69 21.904C709.386 19.9413 705.759 18.576 700.81 17.808C695.86 17.04 689.076 16.656 680.458 16.656C672.692 16.656 666.676 16.9547 662.41 17.552C658.228 18.1493 655.242 19.1307 653.45 20.496C651.743 21.776 650.89 23.6107 650.89 26C650.89 28.4747 651.786 30.352 653.578 31.632C655.37 32.8267 658.527 33.7653 663.05 34.448C667.572 35.1307 674.527 35.728 683.914 36.24C698.164 37.008 709.044 38.032 716.554 39.312C724.148 40.592 730.122 43.024 734.474 46.608C738.911 50.1067 741.13 55.4827 741.13 62.736C741.13 70.3307 738.868 76.2187 734.346 80.4C729.823 84.5813 723.551 87.44 715.53 88.976C707.508 90.512 697.524 91.28 685.577 91.28Z" fill="white"/>
</svg>
