<svg width="453" height="257" viewBox="0 0 453 257" fill="none" xmlns="http://www.w3.org/2000/svg">
<path d="M61.2934 0V142H0V0H61.2934ZM245.127 40.5714H131.97V53.7571H245.127V88.2429H131.97V101.429H245.127V142H70.6771V0H245.127V40.5714ZM374.676 0C414.517 0 452 22.72 452 71C452 119.28 414.517 142 374.676 142H252.089V0H374.676ZM355.817 97.3714C369.018 97.3714 390.707 97.3714 390.707 71C390.707 44.6286 369.018 44.6286 355.817 44.6286H313.383V97.3714H355.817Z" fill="black"/>
<path d="M66.56 165.28C88.192 165.28 108.544 179.616 108.544 210.08C108.544 240.544 88.192 254.88 66.56 254.88H0V165.28H66.56ZM56.32 226.72C63.488 226.72 75.264 226.72 75.264 210.08C75.264 193.44 63.488 193.44 56.32 193.44H33.28V226.72H56.32ZM111.095 223.264H144.375C144.375 227.616 148.471 230.56 169.591 230.56C189.303 230.56 192.247 229.28 192.247 225.952C192.247 222.112 189.303 221.6 168.311 220.96C127.863 219.68 112.375 213.024 112.375 192.16C112.375 172.448 131.703 164 167.031 164C201.975 164 221.687 172.448 221.687 195.36H188.407C188.407 190.624 180.727 189.6 164.471 189.6C148.855 189.6 145.655 190.368 145.655 193.824C145.655 197.28 148.855 197.152 168.311 197.92C203.639 199.328 225.527 201.76 225.527 225.184C225.527 249.888 205.047 256.16 168.311 256.16C131.575 256.16 111.095 249.888 111.095 223.264ZM306.135 165.28H342.743L305.623 254.88H256.215L219.095 165.28H255.703L280.919 231.84L306.135 165.28ZM337.72 223.264H371C371 227.616 375.096 230.56 396.216 230.56C415.928 230.56 418.872 229.28 418.872 225.952C418.872 222.112 415.928 221.6 394.936 220.96C354.488 219.68 339 213.024 339 192.16C339 172.448 358.328 164 393.656 164C428.6 164 448.312 172.448 448.312 195.36H415.032C415.032 190.624 407.352 189.6 391.096 189.6C375.48 189.6 372.28 190.368 372.28 193.824C372.28 197.28 375.48 197.152 394.936 197.92C430.264 199.328 452.152 201.76 452.152 225.184C452.152 249.888 431.672 256.16 394.936 256.16C358.2 256.16 337.72 249.888 337.72 223.264Z" fill="black"/>
</svg>
