<svg width="124" height="101" viewBox="0 0 124 101" fill="none" xmlns="http://www.w3.org/2000/svg">
<g filter="url(#filter0_d_35_192)">
<path d="M63.64 92.28C50.4987 92.28 39.6613 91.384 31.128 89.592C22.68 87.7147 16.152 84.3867 11.544 79.608C7.02133 74.8293 4.76 68.1733 4.76 59.64H26.904C26.904 63.3093 28.0133 66.2107 30.232 68.344C32.4507 70.4773 36.2907 72.056 41.752 73.08C47.2987 74.104 55.0213 74.616 64.92 74.616C73.112 74.616 79.5973 74.2747 84.376 73.592C89.1547 72.9093 92.6107 71.8427 94.744 70.392C96.8773 68.9413 97.944 66.9787 97.944 64.504C97.944 61.7733 97.0053 59.768 95.128 58.488C93.336 57.208 90.0507 56.2693 85.272 55.672C80.4933 54.9893 72.728 54.392 61.976 53.88C48.5787 53.2827 37.9973 52.0453 30.232 50.168C22.4667 48.2907 16.7493 45.432 13.08 41.592C9.496 37.752 7.704 32.504 7.704 25.848C7.704 16.4613 12.184 9.848 21.144 6.008C30.104 2.08266 43.416 0.119995 61.08 0.119995C78.744 0.119995 92.184 2.59466 101.4 7.544C110.701 12.408 115.352 20.2587 115.352 31.096H93.336C93.336 27.512 92.1413 24.7813 89.752 22.904C87.448 20.9413 83.8213 19.576 78.872 18.808C73.9227 18.04 67.1387 17.656 58.52 17.656C50.7547 17.656 44.7387 17.9547 40.472 18.552C36.2907 19.1493 33.304 20.1307 31.512 21.496C29.8053 22.776 28.952 24.6107 28.952 27C28.952 29.4747 29.848 31.352 31.64 32.632C33.432 33.8267 36.5893 34.7653 41.112 35.448C45.6347 36.1307 52.5893 36.728 61.976 37.24C76.2267 38.008 87.1067 39.032 94.616 40.312C102.211 41.592 108.184 44.024 112.536 47.608C116.973 51.1067 119.192 56.4827 119.192 63.736C119.192 71.3307 116.931 77.2187 112.408 81.4C107.885 85.5813 101.613 88.44 93.592 89.976C85.5707 91.512 75.5867 92.28 63.64 92.28Z" fill="white"/>
</g>
<defs>
<filter id="filter0_d_35_192" x="0.76001" y="0.119995" width="122.432" height="100.16" filterUnits="userSpaceOnUse" color-interpolation-filters="sRGB">
<feFlood flood-opacity="0" result="BackgroundImageFix"/>
<feColorMatrix in="SourceAlpha" type="matrix" values="0 0 0 0 0 0 0 0 0 0 0 0 0 0 0 0 0 0 127 0" result="hardAlpha"/>
<feOffset dy="4"/>
<feGaussianBlur stdDeviation="2"/>
<feComposite in2="hardAlpha" operator="out"/>
<feColorMatrix type="matrix" values="0 0 0 0 0 0 0 0 0 0 0 0 0 0 0 0 0 0 0.25 0"/>
<feBlend mode="normal" in2="BackgroundImageFix" result="effect1_dropShadow_35_192"/>
<feBlend mode="normal" in="SourceGraphic" in2="effect1_dropShadow_35_192" result="shape"/>
</filter>
</defs>
</svg>
